<svg xmlns="http://www.w3.org/2000/svg" viewBox="0 0 200 200" width="200" height="200" role="img" aria-label="Атеlie Инари — knак">
  <defs>
    <path id="ringTop" d="M 100 100 m -78 0 a 78 78 0 1 1 156 0"></path>
    
  </defs>

  <g>
    
    <circle cx="100" cy="100" r="96" fill="#bd1f1f"></circle>
    
    <circle cx="100" cy="100" r="80" fill="none" stroke="#f5f1ea" stroke-width="1.5" opacity="0.85"></circle>
    
    <g transform="translate(57 50) scale(0.86)">
      <path d="M12 10 V90 H35 V55 L65 27 V90 H88 V10 H65 V45 L35 73 V10 Z" fill="#f5f1ea"></path>
    </g>
    
    <g fill="#c8a96a" transform="translate(100 165)">
      <path d="M0 -4 L1 -1 L4 0 L1 1 L0 4 L-1 1 L-4 0 L-1 -1 Z" transform="translate(-18 0) scale(1.6)"></path>
      <path d="M0 -4 L1 -1 L4 0 L1 1 L0 4 L-1 1 L-4 0 L-1 -1 Z" transform="translate(0 0) scale(2.2)"></path>
      <path d="M0 -4 L1 -1 L4 0 L1 1 L0 4 L-1 1 L-4 0 L-1 -1 Z" transform="translate(18 0) scale(1.6)"></path>
    </g>
    
    <text fill="#f5f1ea" font-family="&#39;Roboto Slab&#39;,&#39;Times New Roman&#39;,serif" font-size="11" font-weight="700" letter-spacing="3" text-transform="uppercase">
      <textPath href="#ringTop" startOffset="50%" text-anchor="middle">АТЕЛЬЕ · ИНАРИ · EST · MMXXVI</textPath>
    </text>
  </g>
  
</svg>