<?xml version="1.0"?>
<svg xmlns="http://www.w3.org/2000/svg" viewBox="0 0 620 200" width="620" height="200" role="img" aria-label="Ателье Инари">
  <title>Ателье Инари — основной логотип</title>
  <defs>
    <path id="ringTop2" d="M 110 100 m -78 0 a 78 78 0 1 1 156 0"></path>
  </defs>

  <g>
    <circle cx="110" cy="100" r="96" fill="#bd1f1f"></circle>
    <circle cx="110" cy="100" r="80" fill="none" stroke="#f5f1ea" stroke-width="1.5" opacity="0.85"></circle>
    <g transform="translate(67 50) scale(0.86)">
      <path d="M12 10 V90 H35 V55 L65 27 V90 H88 V10 H65 V45 L35 73 V10 Z" fill="#f5f1ea"></path>
    </g>
    <g fill="#c8a96a" transform="translate(110 175)">
      <path d="M0 -4 L1 -1 L4 0 L1 1 L0 4 L-1 1 L-4 0 L-1 -1 Z" transform="translate(-18 0) scale(1.6)"></path>
      <path d="M0 -4 L1 -1 L4 0 L1 1 L0 4 L-1 1 L-4 0 L-1 -1 Z" transform="translate(0 0) scale(2.2)"></path>
      <path d="M0 -4 L1 -1 L4 0 L1 1 L0 4 L-1 1 L-4 0 L-1 -1 Z" transform="translate(18 0) scale(1.6)"></path>
    </g>
    <text fill="#f5f1ea" font-size="11" font-weight="700" letter-spacing="3">
      <textPath href="#ringTop2" startOffset="50%" text-anchor="middle">АТЕЛЬЕ · ИНАРИ · EST · MMXXVI</textPath>
    </text>
  </g>

  <g transform="translate(235 10)">
    <text x="0" y="58" font-size="11" letter-spacing="5" fill="#1a1a1a">АТЕЛЬЕ ·</text>
    <text x="84" y="58" font-size="11" letter-spacing="5" fill="#c8a96a">EST MMXXVI</text>

    <text x="0" y="120" font-size="76" font-weight="900" letter-spacing="-1" fill="#bd1f1f">ИНАРИ</text>

    <rect x="0" y="138" width="48" height="3" fill="#c8a96a"></rect>
    <rect x="52" y="140" width="220" height="1" fill="#1a1a1a"></rect>
    <text x="0" y="162" font-size="10" letter-spacing="4" fill="#1a1a1a">РУЧНАЯ РАБОТА · СШИТО НА ЗАКАЗ</text>
  </g>
</svg>